<svg width="56" height="52" viewBox="0 0 56 52" fill="none" xmlns="http://www.w3.org/2000/svg">
<path d="M0.0025054 6.86251C0.136545 6.45018 0.233003 6.02156 0.410886 5.62804C1.26648 3.73183 2.76597 2.7242 4.81664 2.51365C10.6542 1.91333 16.4918 1.31803 22.3282 0.71771C24.4816 0.495881 26.6337 0.270292 28.7846 0.0309164C31.5142 -0.272376 34.0347 1.69025 34.3804 4.40484C34.4318 4.80965 34.4718 5.21696 34.5245 5.69446C32.7669 5.47138 31.1021 5.25581 29.4347 5.05153C28.0543 4.88234 26.6813 4.58907 25.2795 4.90364C22.1252 5.61174 19.9731 8.05939 19.6223 11.3267C19.487 12.5837 19.3029 13.8357 19.135 15.1366C18.3759 15.1366 17.6719 15.1354 16.9678 15.1366C12.7162 15.1454 9.68088 18.152 9.66459 22.4081C9.64706 26.97 9.65081 31.5307 9.67336 36.0926C9.67587 36.6528 9.52555 36.8909 8.95682 36.8696C8.08995 36.837 7.19176 36.9737 6.35872 36.7957C4.24791 36.342 2.7572 34.5498 2.52294 32.3152C1.91538 26.4975 1.32912 20.6786 0.734083 14.8596C0.526135 12.8306 0.316934 10.8015 0.102722 8.7725C0.0926999 8.676 0.0350757 8.58325 0 8.48926C0 7.94784 0 7.40518 0 6.86376L0.0025054 6.86251Z" fill="white"/>
<path d="M16.1263 51.7478C15.6139 51.5848 15.0803 51.4708 14.5955 51.2502C13.096 50.5697 12.1652 49.3904 11.8057 47.7924C11.7431 47.5155 11.8358 47.1182 12.0074 46.8888C15.1116 42.7392 18.2358 38.6022 21.3651 34.4714C22.4111 33.0903 24.0621 33.084 25.1094 34.4589C26.8757 36.7762 28.622 39.1098 30.377 41.4358C30.4522 41.5361 30.5248 41.6376 30.6037 41.7341C31.0422 42.273 31.5959 42.3758 32.0719 42.0086C32.5429 41.6464 32.598 41.0761 32.1871 40.5147C31.671 39.8091 31.1349 39.1185 30.6075 38.4217C30.4835 38.2563 30.3632 38.0883 30.2054 37.8728C31.1662 36.617 32.0694 35.3161 33.1016 34.1267C34.0123 33.0765 35.6058 33.2632 36.5152 34.4438C37.9759 36.34 39.4115 38.2563 40.8571 40.1638C42.5169 42.3532 44.1642 44.5527 45.8441 46.7272C46.1485 47.1219 46.2061 47.4879 46.0759 47.9353C45.4946 49.9318 44.2031 51.1725 42.1674 51.6287C42.0271 51.66 41.8906 51.7077 41.7528 51.7478H16.1263Z" fill="white"/>
<path d="M46.2366 43.9167C45.9949 43.6171 45.8646 43.4642 45.7431 43.3038C43.2402 40.0002 40.7435 36.6928 38.2369 33.3917C36.2576 30.7849 33.0294 30.8024 31.0577 33.4218C30.3699 34.3341 29.6847 35.2478 28.9544 36.2203C28.1288 35.135 27.3659 34.076 26.5454 33.0646C25.0384 31.2072 22.4253 30.9227 20.5788 32.4141C20.1805 32.7362 19.8485 33.1548 19.5353 33.5671C17.0712 36.8219 14.6197 40.0854 12.1619 43.3452C12.0429 43.5031 11.9114 43.6522 11.6984 43.9116C11.6809 43.577 11.6621 43.379 11.6621 43.181C11.6608 36.3043 11.6583 29.4288 11.6621 22.5521C11.6633 19.2297 13.7679 17.1367 17.0963 17.1367C25.0121 17.1367 32.9279 17.1367 40.8438 17.1367C44.1246 17.1367 46.2341 19.2472 46.2354 22.5308C46.2379 29.4075 46.2354 36.283 46.2354 43.1597V43.9154L46.2366 43.9167ZM38.8745 24.3618C38.8845 22.215 37.3187 20.6171 35.1991 20.6133C33.1033 20.6083 31.5224 22.1761 31.5011 24.2791C31.4786 26.4222 33.0219 28.0252 35.1477 28.0665C37.2448 28.1066 38.8645 26.4974 38.8745 24.3631V24.3618Z" fill="white"/>
<path d="M48.237 44.1752V43.4333C48.237 36.4124 48.2445 29.3916 48.2332 22.372C48.2282 18.8365 46.0473 16.0593 42.69 15.3148C42.0862 15.1807 41.4511 15.1444 40.831 15.1431C34.5412 15.1306 28.2514 15.1356 21.9616 15.1356C21.7173 15.1356 21.473 15.1356 21.1411 15.1356C21.3703 13.5364 21.4818 11.9924 21.83 10.5048C22.41 8.02829 24.8678 6.46797 27.3783 6.79256C33.1357 7.53826 38.8968 8.26015 44.6543 9.00083C47.0682 9.31164 49.4909 9.57984 51.8899 9.9834C54.503 10.422 56.2868 12.8684 55.9624 15.5016C55.3461 20.5009 54.6796 25.4939 54.037 30.4895C53.6437 33.5449 53.2478 36.6004 52.8732 39.6571C52.5688 42.1336 50.6597 44.0323 48.2357 44.1752H48.237Z" fill="white"/>
<path d="M35.1734 22.6153C36.1054 22.6065 36.8746 23.3748 36.8821 24.3198C36.8896 25.266 36.1343 26.0493 35.2047 26.0606C34.284 26.0718 33.5036 25.291 33.4948 24.3511C33.4873 23.4099 34.2464 22.6228 35.1722 22.6153H35.1734Z" fill="white"/>
</svg>
