<svg width="56" height="56" viewBox="0 0 56 56" fill="none" xmlns="http://www.w3.org/2000/svg">
<circle cx="28" cy="28" r="28" fill="white"/>
<path d="M14.0002 28.4328C14.0278 22.6959 17.9096 17.9058 23.4942 16.8402C27.0523 16.1608 30.2497 17.0748 33.0568 19.396C33.2148 19.5263 33.2538 19.6431 33.2034 19.8525C32.9882 20.7482 33.0349 21.64 33.3395 22.5086C33.4185 22.7354 33.4118 22.9169 33.2957 23.1263C33.0939 23.4921 32.913 23.8705 32.735 24.2478C32.557 24.6252 32.3952 24.9968 32.0173 25.2381C31.845 25.3481 31.7146 25.5556 31.6118 25.7448C30.798 27.2389 29.9927 28.7378 29.1941 30.2396C29.1074 30.4017 29.0265 30.4886 28.8324 30.5195C26.6821 30.8717 25.2333 32.3986 24.9677 34.6069C24.8954 35.2101 24.9278 35.8259 24.8564 36.4291C24.5975 38.621 22.273 39.9153 20.3321 38.9183C17.7697 37.6018 15.9468 35.5673 14.8493 32.8745C14.2725 31.4557 13.9907 29.9713 14.0002 28.4328ZM28.2431 25.2082C29.2797 25.214 30.1478 24.3453 30.1612 23.2885C30.1745 22.2249 29.3045 21.3253 28.2584 21.3215C27.2104 21.3186 26.3346 22.2085 26.3394 23.273C26.3442 24.3289 27.2027 25.2024 28.2431 25.2082ZM21.5676 26.2399C22.6176 26.237 23.4647 25.3809 23.4704 24.3154C23.4762 23.2412 22.6166 22.3696 21.5543 22.3725C20.5053 22.3754 19.6563 23.2354 19.6496 24.299C19.6429 25.3713 20.5044 26.2428 21.5676 26.2399ZM20.5529 28.9897C19.4983 28.9829 18.6406 29.8294 18.6292 30.8882C18.6168 31.974 19.4516 32.8416 20.5168 32.8532C21.5829 32.8648 22.4348 32.0087 22.4367 30.9248C22.4386 29.8545 21.6038 28.9964 20.5529 28.9897Z" fill="#E8523F"/>
<path d="M34.1415 24.0282C34.1415 24.0279 34.1419 24.0278 34.1421 24.028C34.9064 24.9368 35.8018 25.4887 36.8427 25.7297C37.4587 25.8724 37.8972 26.5117 37.6615 27.0985C37.5835 27.2925 37.4968 27.4836 37.4293 27.6814C37.4036 27.7577 37.415 27.8484 37.4188 27.9324C37.4283 28.1438 37.5035 28.3715 37.4483 28.5617C36.4089 32.1694 34.9468 35.5803 32.8241 38.6795C32.0188 39.855 31.1621 40.992 30.1131 41.9581C29.7514 42.2911 29.3488 42.5961 28.9214 42.8325C28.2779 43.1877 27.7953 42.9754 27.6811 42.2399C27.5745 41.5469 27.544 40.824 27.6078 40.1262C27.9362 36.531 29.0128 33.1529 30.6281 29.9505C31.2421 28.7335 31.9293 27.555 32.6042 26.3717C32.7023 26.1999 32.9212 26.1015 33.0792 25.9625C33.163 25.8891 33.2591 25.8158 33.3076 25.7202C33.5865 25.172 33.853 24.6181 34.1415 24.0284C34.1415 24.0283 34.1415 24.0283 34.1415 24.0282Z" fill="#E8523F"/>
<path d="M41.9999 18.6971C41.9996 18.6971 41.9994 18.6973 41.9994 18.6975C41.9385 19.9588 41.7947 21.1979 41.3312 22.3724C40.5897 24.2516 38.4385 25.1656 36.568 24.4176C34.7119 23.6744 33.7571 21.526 34.4844 19.6468C34.906 18.5581 35.7037 17.8555 36.8212 17.5302C37.2277 17.4125 37.6389 17.2957 38.0234 17.1219C38.764 16.789 39.2742 16.1819 39.6721 15.4937C40.0462 14.8471 40.4612 14.8915 40.9485 15.3055C41.4759 15.7533 41.7072 16.373 41.8205 17.0312C41.9147 17.5802 41.9432 18.1408 42.0003 18.6966C42.0003 18.6968 42.0001 18.6971 41.9999 18.6971Z" fill="#E8523F"/>
</svg>
