<svg width="56" height="56" viewBox="0 0 56 56" fill="none" xmlns="http://www.w3.org/2000/svg">
<circle cx="28" cy="28" r="28" fill="white"/>
<g clipPath="url(#clip0_2_3106)">
<path d="M28.483 39.9999C23.9242 39.9999 19.3654 39.9999 14.806 39.9999C14.1702 39.9999 14 39.8407 14 39.2448C14 32.0412 14 24.8375 14 17.6343C14 16.8275 14.4578 16.2327 15.2275 16.0479C15.3806 16.0111 15.5446 16.002 15.7034 16.002C24.2362 15.9999 32.7689 15.9993 41.3012 16.0009C42.3182 16.0009 42.9983 16.6486 42.9989 17.613C43 24.8519 43 32.0908 42.9989 39.3303C42.9989 39.8119 42.7947 39.9999 42.2728 40.0004C37.676 40.0009 33.0798 40.0004 28.483 40.0004V39.9999ZM41.8281 20.3543C41.8343 20.2481 41.8434 20.1701 41.8434 20.0916C41.8446 19.2923 41.8451 18.4935 41.8434 17.6941C41.8423 17.2098 41.701 17.079 41.1854 17.0785C39.4492 17.0774 37.7135 17.0785 35.9772 17.0785C29.2499 17.0785 22.522 17.0785 15.7947 17.079C15.3114 17.079 15.1611 17.2152 15.1594 17.6605C15.156 18.4774 15.1577 19.2944 15.1588 20.1114C15.1588 20.1888 15.1713 20.2657 15.1787 20.3543H41.8281ZM37.2064 23.6494H19.7942C19.7942 23.8982 19.7942 24.1278 19.7942 24.3569C19.7942 24.6047 19.9264 24.7285 20.1907 24.7285C25.741 24.7285 31.2913 24.7285 36.8411 24.7285C36.9069 24.7285 36.984 24.7483 37.0368 24.7227C37.1037 24.6901 37.1956 24.6234 37.1984 24.5678C37.2143 24.2683 37.2058 23.9676 37.2058 23.6494H37.2064ZM37.1916 31.2947H23.8731V32.3546H37.1905V31.2947H37.1916ZM37.1859 29.0798V28.0199H23.876V29.0798H37.1854H37.1859ZM23.868 35.616H37.1876V34.5684H23.8675V35.616H23.868ZM21.5277 31.2952H19.8141V32.3541H21.5277V31.2952ZM19.8169 28.006V29.0745H21.5197V28.006H19.8169ZM21.5237 35.6256V34.5636H19.8209V35.6256H21.5237Z" fill="#00A0B6"/>
</g>
<defs>
<clipPath id="clip0_2_3106">
<rect width="29" height="24" fill="white" transform="translate(14 16)"/>
</clipPath>
</defs>
</svg>
