<svg width="52" height="52" viewBox="0 0 52 52" fill="none" xmlns="http://www.w3.org/2000/svg">
<g clipPath="url(#clip0_646_1889)">
<path d="M4.06231 0H27.4216C27.4216 3.45256 27.4216 6.90511 27.4216 10.3567C27.4216 11.6459 27.9569 12.1862 29.2309 12.1862C32.4975 12.1862 35.764 12.1862 39.0305 12.1862C39.2096 12.1862 39.3887 12.1862 39.6045 12.1862C39.6045 12.4355 39.6045 12.6187 39.6045 12.8028C39.6045 14.6141 39.5943 16.4243 39.6126 18.2356C39.6167 18.6222 39.5027 18.8919 39.2279 19.1636C35.9818 22.3801 32.7325 25.5925 29.525 28.8476C28.9317 29.45 28.368 30.1694 28.0546 30.9428C27.3768 32.6146 26.8131 34.3394 26.3134 36.0743C25.9074 37.4846 26.3032 38.7728 27.389 39.7721C28.4636 40.7611 29.7397 41.0705 31.1532 40.6197C32.4079 40.2188 33.6474 39.7649 34.9072 39.3823C36.2514 38.9743 37.4095 38.2956 38.367 37.2648C38.7273 36.8771 39.1241 36.522 39.577 36.0814C39.5923 36.2656 39.6024 36.3276 39.6024 36.3887C39.6024 40.0448 39.633 43.6998 39.5933 47.3549C39.5638 50.0504 37.5601 51.9898 34.8441 51.9929C24.8074 52.0051 14.7706 52.0071 4.73495 51.9786C4.02975 51.9766 3.26654 51.8219 2.63155 51.5228C0.81002 50.667 0 49.1295 0 47.1442C0 37.9374 0 28.7306 0 19.5238C0 14.6161 0 9.70745 0 4.7998C0 3.29891 0.513894 2.03205 1.68313 1.04706C2.37918 0.461969 3.20446 0.200458 4.06231 0ZM18.2305 15.2338C14.8286 15.2338 11.4268 15.2338 8.02489 15.2338C6.80579 15.2338 6.09855 15.7945 6.09753 16.7571C6.09753 17.7197 6.80579 18.2803 8.02387 18.2803C14.8449 18.2803 21.666 18.2803 28.486 18.2803C28.6722 18.2803 28.8595 18.2885 29.0437 18.2681C29.873 18.1755 30.449 17.4856 30.3991 16.6563C30.3483 15.8036 29.698 15.2368 28.7394 15.2358C25.2358 15.2317 21.7321 15.2338 18.2285 15.2338H18.2305ZM15.2255 21.3269C12.7548 21.3269 10.284 21.3238 7.81221 21.3279C6.7834 21.3299 6.09245 21.9537 6.09753 22.8583C6.10262 23.7629 6.79256 24.3694 7.82951 24.3714C9.64086 24.3755 11.4512 24.3724 13.2625 24.3724C16.3764 24.3724 19.4903 24.3684 22.6052 24.3755C23.1832 24.3765 23.6788 24.2198 24.0248 23.7415C24.3698 23.2643 24.4176 22.7321 24.1673 22.204C23.8773 21.5915 23.3573 21.3259 22.6887 21.3259C20.2006 21.3269 17.7126 21.3259 15.2245 21.3259L15.2255 21.3269ZM15.1838 30.4665C17.6881 30.4665 20.1935 30.4727 22.6978 30.4635C23.6941 30.4604 24.3627 29.7705 24.3067 28.8425C24.2558 27.9898 23.6056 27.423 22.647 27.422C18.8218 27.418 14.9966 27.42 11.1724 27.42C10.0041 27.42 8.83695 27.4129 7.66873 27.4241C6.97166 27.4302 6.43029 27.8046 6.20235 28.3989C5.8065 29.4286 6.54935 30.4584 7.71961 30.4635C10.2077 30.4747 12.6957 30.4665 15.1838 30.4665ZM15.2011 36.5607C17.6719 36.5607 20.1426 36.5566 22.6144 36.5637C23.1924 36.5658 23.687 36.403 24.0309 35.9227C24.3739 35.4434 24.4176 34.9112 24.1652 34.3841C23.8834 33.7929 23.3817 33.5162 22.7324 33.5151C20.4642 33.5121 18.1969 33.5141 15.9287 33.5131C13.2208 33.5131 10.513 33.5182 7.80509 33.51C7.07342 33.508 6.5117 33.7766 6.21761 34.4615C5.77495 35.4933 6.54121 36.5515 7.73793 36.5566C10.226 36.5668 12.7141 36.5597 15.2021 36.5597L15.2011 36.5607ZM24.324 42.6538C22.8688 42.6538 21.4136 42.6507 19.9584 42.6548C18.9245 42.6578 18.2438 43.2684 18.2448 44.1791C18.2458 45.0908 18.9256 45.6983 19.9625 45.6993C22.8729 45.7024 25.7832 45.7024 28.6936 45.6993C29.7306 45.6983 30.4073 45.0898 30.4063 44.176C30.4063 43.2623 29.7285 42.6578 28.6895 42.6548C27.2344 42.6507 25.7792 42.6548 24.324 42.6548V42.6538Z" fill="white"/>
<path d="M31.1796 0C32.6633 0.230984 33.742 1.10812 34.7403 2.15721C35.824 3.29585 36.9597 4.38667 38.0709 5.49886C39.06 6.48792 39.5953 7.66116 39.5332 9.11117H30.3666V0H31.1786H31.1796Z" fill="white"/>
<path d="M52 18.5846C51.5044 20.285 49.9851 21.1428 48.9635 22.3598C47.5062 20.9036 46.0867 19.4841 44.6071 18.0056C45.4537 17.2048 46.2698 16.2555 47.2549 15.5411C48.9004 14.3475 51.2205 15.2175 51.8596 17.156C51.8952 17.2638 51.9522 17.3646 52 17.4684V18.5856V18.5846Z" fill="white"/>
<path d="M42.4447 20.3673C43.8225 21.7532 45.237 23.1768 46.624 24.5718C43.331 27.8636 40.0075 31.1869 36.7145 34.4808C35.3265 33.0908 33.9059 31.6683 32.526 30.2864C35.7986 27.014 39.1211 23.6906 42.4447 20.3673Z" fill="white"/>
<path d="M34.0859 36.4326C32.8231 36.8519 31.5612 37.2833 30.2902 37.6873C29.6145 37.902 29.0701 37.44 29.2675 36.7827C29.6644 35.4588 30.1274 34.1554 30.5477 32.8926C31.7261 34.0719 32.8933 35.2391 34.087 36.4326H34.0859Z" fill="white"/>
</g>
<defs>
<clipPath id="clip0_646_1889">
<rect width="52" height="52" fill="white"/>
</clipPath>
</defs>
</svg>
