<svg width="52" height="55" viewBox="0 0 52 55" fill="none" xmlns="http://www.w3.org/2000/svg">
<path d="M0 47.3379C0 47.1642 0.025803 46.9889 0.106117 46.8349C0.435555 46.203 1.00087 45.999 1.75697 46.002C7.39634 46.0223 13.0357 46.0223 18.6762 46.002C19.6704 45.9986 20.3691 46.3564 20.9072 47.2073C22.1901 49.2365 22.2115 49.2229 24.5852 49.2229C26.0602 49.2229 27.5363 49.2139 29.0113 49.2263C29.8314 49.2331 30.447 48.9035 30.8806 48.2061C31.1379 47.793 31.4142 47.3913 31.676 46.9816C32.0815 46.3485 32.6533 46.0212 33.4048 46.0167C33.7778 46.0144 34.1519 46.0121 34.5249 46.0121C39.716 46.0121 44.9083 46.0121 50.0994 46.0121C50.305 46.0121 50.5106 46.0076 50.715 46.0246C51.6665 46.1047 52.2507 46.9398 51.8946 47.8201C51.1228 49.7285 50.305 51.6189 49.4872 53.5081C49.267 54.0159 48.83 54.2575 48.2784 54.2766C48.129 54.2823 47.9796 54.2789 47.8302 54.2789C33.2824 54.2789 18.7357 54.2733 4.18796 54.2913C3.23421 54.2924 2.66915 53.9595 2.30967 53.0567C1.61993 51.3259 0.857339 49.6247 0.118879 47.9143C0.0403027 47.7324 0 47.5362 0 47.3379Z" fill="white"/>
<path d="M46.411 0C46.4107 0 46.4106 0.000412026 46.4109 0.00056238C47.6481 0.702454 48.0443 1.60976 47.8242 3.20852C47.6153 4.72983 47.0839 6.14392 46.4368 7.5219C45.7971 8.88377 44.7435 10.6865 43.7094 12.2403C42.6819 13.7841 40.6765 14.1115 39.1087 13.121C37.3966 12.0393 36.7763 9.76732 37.7956 8.01737C37.9359 7.77655 38.0776 7.53685 38.2216 7.29845C39.327 5.46565 40.5694 3.7333 42.0849 2.21086C42.8044 1.48801 43.5866 0.862521 44.4777 0.401752C45.0707 0.0951064 45.7434 0 46.411 0Z" fill="white"/>
<path d="M44.6657 17.3975C44.6695 15.9051 44.4279 14.1492 45.2378 12.8957C45.2821 12.8272 45.3263 12.7588 45.3705 12.6903C46.3812 11.1261 48.6509 10.6368 49.2959 12.3838C49.3999 12.6654 49.4814 12.9632 49.5401 13.2771C49.6154 13.68 49.6367 14.0975 49.6367 14.5083C49.6423 24.231 49.6412 33.9536 49.6412 43.6762C49.6412 44.0439 49.3431 44.342 48.9753 44.342H48.9177C43.8929 44.342 38.8668 44.368 33.842 44.3274C32.167 44.3138 30.865 44.8916 30.091 46.3847C29.6035 47.3248 28.9642 47.6408 27.9229 47.5686C26.4917 47.4693 25.047 47.5336 23.6091 47.5506C23.2541 47.5551 22.9879 47.4795 22.8396 47.1375C22.8317 47.1206 22.8171 47.107 22.8092 47.0901C21.7611 44.9334 20.0491 44.2348 17.6866 44.3014C12.8336 44.438 7.97276 44.342 3.11638 44.342H3.03796C2.6789 44.342 2.36933 44.0601 2.36933 43.701C2.36821 33.9592 2.36596 24.2185 2.36933 14.4767C2.36933 11.3145 4.46107 9.19731 7.58968 9.19618C16.5756 9.19167 25.5615 9.19392 34.5474 9.19392C34.8228 9.19392 35.0061 9.47835 34.8925 9.72912C34.2831 11.074 33.69 12.3826 33.0904 13.7058C32.9577 13.9986 32.666 14.1867 32.3445 14.1867C25.0212 14.1833 17.6979 14.1788 10.3745 14.1799C8.86472 14.1799 7.76268 15.0117 7.45263 16.3806C7.39085 16.6515 7.38748 16.9393 7.38635 17.2192C7.38298 23.6385 7.37736 30.0578 7.39534 36.477C7.39639 37.0019 7.54145 37.5268 7.63383 38.0516C7.64546 38.1177 7.69776 38.1691 7.76429 38.1778C7.8221 38.1854 7.8795 38.1591 7.91154 38.1104C8.00966 37.9611 8.10944 37.8121 8.20193 37.6598C10.0566 34.6228 11.9102 31.5847 13.7638 28.5477C14.4457 27.4316 15.2994 27.4248 15.978 28.5353C16.8755 30.0058 17.7675 31.4809 18.664 32.9525C19.1875 33.8114 19.6683 33.8204 20.1929 32.9807C20.6097 32.3138 21.0197 31.6423 21.4398 30.9764C22.0453 30.0171 22.9148 30.0104 23.5136 30.9708C25.1987 33.6714 26.8826 36.3743 28.5464 39.0886C28.7598 39.4373 28.9856 39.5592 29.39 39.5569C33.4252 39.5411 37.4604 39.5501 41.4956 39.5468C43.5367 39.5445 44.6343 38.4329 44.6377 36.3732C44.6466 30.0476 44.6489 23.7231 44.6657 17.3975Z" fill="white"/>
<path d="M36.7429 20.2808C36.7435 20.2802 36.7445 20.2803 36.7449 20.281C37.4576 21.3156 37.7851 22.5272 37.1765 23.7624C36.1037 25.9406 34.4197 27.4269 31.9876 27.9212C30.7216 28.1785 29.4589 28.0882 28.2119 27.7779C27.2739 27.5443 27.0279 26.7599 27.684 26.0534C28.7467 24.9102 29.0084 23.4995 29.1399 22.0165C29.196 21.3902 29.3353 20.7503 29.5623 20.1657C30.1678 18.6117 31.4821 17.8803 33.1301 18.0925C33.2765 18.1109 33.4149 18.0168 33.4635 17.8775C33.7069 17.1793 33.9482 16.4869 34.1894 15.7946C34.7434 14.2045 36.6211 13.5361 38.0454 14.4343C39.4647 15.3292 39.6992 17.317 38.5142 18.5048C37.9246 19.0958 37.3362 19.6857 36.7429 20.2808Z" fill="white"/>
<path d="M20.1359 18.5801C21.8884 18.5846 23.305 20.0043 23.3117 21.7627C23.3185 23.5356 21.8659 24.9983 20.1079 24.987C18.3711 24.9768 16.9377 23.5345 16.9309 21.7897C16.9242 20.0089 18.3554 18.5745 20.1359 18.5801Z" fill="white"/>
</svg>
