<svg width="56" height="56" viewBox="0 0 56 56" fill="none" xmlns="http://www.w3.org/2000/svg">
<path d="M56 28C56 43.464 43.464 56 28 56C12.536 56 0 43.464 0 28C0 12.536 12.536 0 28 0C43.464 0 56 12.536 56 28Z" fill="white"/>
<g clipPath="url(#clip0_2_3105)">
<path d="M36.5584 28.3212H31.794C31.7267 26.7121 31.0591 25.4083 29.6995 24.4814C28.7849 23.858 27.7556 23.5776 26.6429 23.6822C24.2316 23.9081 22.4102 25.7081 22.2275 27.9331C22.0254 30.386 23.9597 32.9759 26.9848 33.0291V41.6675C26.4845 41.6368 25.9561 41.6168 25.4302 41.5673C25.0595 41.5323 24.6914 41.4659 24.3259 41.3977C23.8 41.2994 23.505 40.9834 23.444 40.4683C23.3389 39.5789 23.2459 38.6889 23.133 37.8008C22.9733 36.544 21.6907 35.8186 20.4927 36.3099C19.6776 36.6441 18.8734 37.0021 18.0615 37.3445C17.4811 37.5892 17.0751 37.4891 16.6679 37.0259C15.5507 35.7573 14.7016 34.3378 14.1282 32.7606C13.8762 32.0677 13.9814 31.7235 14.5983 31.2816C15.2429 30.8197 15.8899 30.3603 16.5338 29.8978C17.7459 29.0278 17.7517 27.6021 16.5447 26.7246C15.8778 26.2395 15.2024 25.7651 14.5342 25.2819C14.0243 24.9139 13.9038 24.5215 14.1109 23.9457C14.6984 22.3165 15.5744 20.8526 16.7403 19.5539C17.1104 19.1414 17.5125 19.045 18.0313 19.2622C18.8144 19.5902 19.5916 19.9313 20.3728 20.263C21.7798 20.8613 23.0483 20.1247 23.2016 18.6282C23.2824 17.8415 23.3709 17.0547 23.4652 16.2692C23.5409 15.6359 23.8186 15.3454 24.4637 15.2309C26.203 14.9217 27.9416 14.9155 29.6777 15.2591C30.2029 15.363 30.4986 15.6765 30.5588 16.1904C30.6627 17.0798 30.7551 17.9704 30.8692 18.8585C31.0283 20.1028 32.2821 20.8282 33.4807 20.3575C34.3003 20.0352 35.1019 19.669 35.9126 19.3248C36.527 19.0638 36.922 19.1627 37.3562 19.6571C38.4714 20.9277 39.3141 22.3515 39.8862 23.9281C40.1183 24.569 40.0093 24.9377 39.452 25.3401C38.8261 25.792 38.2079 26.2545 37.5672 26.6851C36.9778 27.0813 36.6046 27.587 36.5597 28.3206L36.5584 28.3212Z" fill="#F8B849"/>
<path d="M35.1321 42.9997C33.6173 42.9997 32.1019 43.0009 30.5871 42.9997C29.1839 42.9978 28.3309 42.1691 28.3303 40.8041C28.3284 37.8149 28.3284 34.8263 28.3303 31.8371C28.3309 30.4915 29.1884 29.6584 30.5711 29.6578C33.6334 29.6559 36.695 29.6559 39.7573 29.6578C41.14 29.6584 41.9975 30.4915 41.9981 31.8371C42.0007 34.8363 42.0013 37.8355 41.9981 40.8347C41.9968 42.1597 41.1342 42.9965 39.7734 42.999C38.2265 43.0022 36.679 42.9997 35.1321 42.9997ZM36.1069 36.6833C36.071 36.6658 36.0492 36.6595 36.0332 36.6464C35.4727 36.1807 34.9134 35.7138 34.3523 35.2488C33.9156 34.8864 33.5558 34.9077 33.1953 35.3283C32.1006 36.6063 31.0078 37.8856 29.9195 39.1687C29.8342 39.2694 29.7604 39.3952 29.7271 39.5204C29.6521 39.8064 29.797 40.1006 30.0503 40.2402C30.3287 40.3929 30.6602 40.3516 30.8924 40.0937C31.3009 39.6406 31.6908 39.1712 32.0871 38.708C32.6797 38.0152 33.2717 37.3211 33.8514 36.6426C33.8976 36.6489 33.9104 36.647 33.9175 36.652C34.5113 37.1433 35.102 37.6384 35.6991 38.1259C36.0601 38.4207 36.4552 38.3994 36.7386 38.0496C37.9834 36.5149 39.2212 34.9759 40.4551 33.4331C40.7123 33.1114 40.6654 32.7171 40.3736 32.483C40.0664 32.237 39.6669 32.2852 39.386 32.6132C39.1673 32.8692 38.9621 33.1358 38.7517 33.3974C37.8693 34.4933 36.9868 35.5892 36.1069 36.682V36.6833Z" fill="#F8B849"/>
</g>
<defs>
<clipPath id="clip0_2_3105">
<rect width="28" height="28" fill="white" transform="translate(14 15)"/>
</clipPath>
</defs>
</svg>
